<?xml version="1.0" encoding="UTF-8"?>
<svg id="Layer_2" data-name="Layer 2" xmlns="http://www.w3.org/2000/svg" viewBox="0 0 142.21 142.16">
  <defs>
    <style>
      .cls-1 {
        fill: #b6ff00;
      }

      .cls-2 {
        fill: #2bb673;
      }
    </style>
  </defs>
  <g id="Layer_1-2" data-name="Layer 1">
    <path class="cls-2" d="m138.13,47.71l.13-.07-1.79-4.24C125.31,17.04,99.6,0,70.96,0c-9.54,0-18.87,1.91-27.74,5.68C7.22,21.14-9.64,62.95,5.63,98.88c11.15,26.29,36.82,43.28,65.39,43.28,9.54,0,18.9-1.91,27.82-5.67,17.55-7.44,31.12-21.26,38.23-38.92,6.48-16.11,6.82-33.65,1.06-49.87Z"/>
    <path class="cls-1" d="m127.93,47.02c-9.98-23.6-32.88-37.76-56.97-37.76-8.04,0-16.23,1.58-24.1,4.91C15.53,27.65.82,63.92,14.15,95.25c9.97,23.55,32.82,37.64,56.87,37.64v.02c8.08,0,16.29-1.6,24.21-4.95,31.47-13.34,46.16-49.61,32.7-80.94Zm-107.57,9.47c-.99,3.59-2.35,6.45-3.54,7.65h-.01c-.4.42-.79.64-1.13.64h-.18c-1.38-.43-1.38-4.68,0-9.49.58-2.09,1.28-3.94,2.01-5.35.93-1.82,1.89-2.94,2.67-2.94h.18c1.39.43,1.39,4.69,0,9.49Zm10.57,15.73s.01-.01.02-.01c.54-.55,1.17-.99,1.89-1.3.34-.15.68-.25,1.03-.33.15-.03.31-.06.46-.08.12-.02.24-.04.35-.05.17-.01.34-.02.51-.02h.03c3.24,0,6.6,2.56,8.37,6.52.64,1.55.95,3.14.96,4.64.01,3.01-1.19,5.65-3.35,6.88-.21.13-.43.24-.67.33-.37.17-.76.28-1.15.36-.4.08-.8.12-1.19.12h-.03c-3.24,0-6.61-2.55-8.37-6.52-1.79-3.91-1.2-8.19,1.14-10.54Zm15.68,45.15c-.27.35-.65.61-1.11.78-.23.09-.49.16-.76.2-.27.05-.55.07-.84.07h-.03c-2.08,0-4.87-1.03-7.5-2.97-4.11-3.02-6.17-7.15-4.66-9.21.14-.18.3-.34.48-.48.01,0,.01-.01.02-.01.19-.15.4-.27.63-.36.45-.18.98-.27,1.57-.27h.03c2.06,0,4.87,1.09,7.49,3.03,3.11,2.37,5.04,5.29,5.17,7.41.04.71-.11,1.33-.49,1.81Zm2.06-73.11c-.47.31-.95.58-1.43.81-.98.48-1.98.79-2.98.94-.49.08-.99.12-1.47.12h-.03c-2.5,0-4.79-1.03-6.11-2.96-2.04-3.01-1.03-7.28,2.2-10.23t.02-.02c.46-.43.97-.83,1.53-1.19.93-.62,1.9-1.09,2.89-1.4.35-.1.7-.19,1.05-.26.64-.13,1.28-.2,1.91-.2h.03c2.5,0,4.79,1.03,6.11,2.96.73,1.12,1.07,2.39,1.05,3.69-.02,2.85-1.75,5.85-4.77,7.74Zm9.55-26.38c-.09-.64.24-1.28.9-1.88,0-.01.01-.01.01-.02.78-.72,2.03-1.37,3.57-1.88,1.28-.42,2.76-.74,4.35-.91.8-.11,1.56-.14,2.31-.14h.11c3.98,0,6.99,1.13,7.09,2.75.02.12.02.25.01.38-.1.91-1,1.8-2.42,2.54-1.4.74-3.31,1.33-5.47,1.65-.31.05-.63.09-.94.12-.88.09-1.74.14-2.55.14h-.03c-3.9,0-6.83-1.04-6.94-2.75Zm4.84,41.15s.01-.01.01-.02c.84-.88,1.85-1.61,3.02-2.12.61-.27,1.23-.46,1.86-.59.62-.13,1.25-.19,1.88-.19h.02c3.64,0,7.07,2.13,8.49,5.72.52,1.21.77,2.45.77,3.68.03,3.37-1.77,6.55-4.86,8.17-.28.15-.58.28-.88.4-1.23.54-2.5.79-3.75.79,0,0,0,0-.01,0,0,0-.01,0-.02,0-3.62,0-7.06-2.14-8.48-5.73-1.45-3.51-.57-7.48,1.95-10.11Zm-2.51,43.65c-.21-2.21.69-4.34,2.33-5.99.01,0,.01-.01.02-.01,1.02-1.04,2.33-1.88,3.84-2.44.91-.33,1.89-.56,2.92-.66.41-.05.83-.06,1.24-.06h.03c4.96,0,9.09,3.01,9.47,7.07v.02c.22,2.2-.68,4.33-2.31,5.98-1.03,1.04-2.36,1.88-3.89,2.44-.9.33-1.87.56-2.9.66h0c-.43.05-.86.07-1.29.07h-.02c-4.94,0-9.05-2.9-9.44-7.08Zm25.43,23.28c-.17.19-.48.38-.9.57-1.5.68-4.46,1.33-7.89,1.71-1.73.19-3.36.28-4.76.28h-.01c-2.67,0-4.48-.34-4.58-.97-.01-.12.04-.25.15-.37.01,0,.02-.02.02-.02.26-.31.89-.62,1.8-.92,1.63-.53,4.14-1.02,7-1.33,1.73-.18,3.36-.28,4.76-.28h.03c2.67,0,4.48.33,4.57.96,0,.12-.06.24-.19.37Zm5.37-82.87h-.02c-1.56,0-3.22-.38-4.8-1.14-4.53-2.33-6.74-7.15-4.95-10.73.3-.58.68-1.1,1.14-1.55l.02-.02c.68-.67,1.53-1.19,2.48-1.54.96-.35,2.01-.53,3.12-.53h.01s.01,0,.02,0c1.58,0,3.24.37,4.82,1.14l-.02.02c3.47,1.78,5.57,5.02,5.57,8.04,0,.93-.2,1.83-.62,2.67-.3.59-.68,1.11-1.14,1.56s-1,.84-1.59,1.14c-1.17.62-2.57.94-4.04.94Zm15.71,63.72c-.22.22-.46.44-.7.66-1.25,1.16-2.6,2.07-3.92,2.68-1.32.63-2.61.96-3.71.96h-.01c-1.08,0-2-.32-2.58-1-1.81-1.94-.58-5.95,2.76-9.38h.01c.22-.24.46-.47.7-.69,1.55-1.45,3.27-2.5,4.88-3.09.97-.35,1.89-.53,2.71-.53h.03c1.09,0,2,.32,2.58,1.01h-.01c1.81,2.06.59,6.07-2.74,9.38Zm4.96-29.99c-.6,1.33-1.43,2.48-2.4,3.39-.97.92-2.08,1.59-3.24,1.99-.77.26-1.56.4-2.34.4-.86,0-1.7-.17-2.52-.53-3.71-1.66-5.08-6.73-3.02-11.27.61-1.34,1.44-2.48,2.4-3.39l.02-.02c.96-.91,2.07-1.59,3.21-1.98.77-.26,1.55-.4,2.32-.4h.03c.86,0,1.71.17,2.52.54,3.71,1.66,5.08,6.72,3.02,11.27Zm9.37-20.71c-.22.23-.46.41-.74.53,0,.01-.03.01-.04.02-.3.12-.6.18-.93.18-2.24,0-5.11-2.82-6.9-6.92-1.81-4.1-1.82-8.19-.22-9.79l.02-.02c.22-.23.49-.41.78-.54.08-.03.17-.04.25-.07.22-.05.44-.09.67-.09h.03c2.24,0,5.11,2.8,6.91,6.9,1.68,4.11,1.68,8.2.17,9.8Zm4.94,33.58c-.08.08-.16.12-.24.15-.06.04-.13.05-.19.05h-.06c-.97-.12-.97-4.39-.14-9.33.7-4.26,1.93-7.8,2.86-8.62.01,0,.01-.01.02-.01.07-.07.14-.12.21-.15.06-.03.12-.05.18-.05h.06s.02,0,.02,0h.01c.97.13.97,4.38.14,9.34-.82,4.37-1.96,7.83-2.87,8.62Z"/>
  </g>
</svg>