<svg xmlns="http://www.w3.org/2000/svg" viewBox="0 0 120 120" fill="none">
  <!-- Outer globe circle - darker for light mode -->
  <circle cx="60" cy="60" r="56" fill="#0F766E" stroke="#0D9488" stroke-width="2.5"/>
  
  <!-- Globe latitude lines -->
  <ellipse cx="60" cy="60" rx="56" ry="20" stroke="#14B8A6" stroke-width="1.5" fill="none" opacity="0.4"/>
  <ellipse cx="60" cy="60" rx="56" ry="35" stroke="#14B8A6" stroke-width="1.5" fill="none" opacity="0.3"/>
  
  <!-- Globe longitude lines -->
  <ellipse cx="60" cy="60" rx="20" ry="56" stroke="#14B8A6" stroke-width="1.5" fill="none" opacity="0.4"/>
  <ellipse cx="60" cy="60" rx="35" ry="56" stroke="#14B8A6" stroke-width="1.5" fill="none" opacity="0.3"/>
  
  <!-- Inner circle background for paddles -->
  <circle cx="60" cy="60" r="38" fill="#115E59" opacity="0.5"/>
  
  <!-- Left Paddle -->
  <g transform="translate(60, 60) rotate(-25)">
    <!-- Paddle face with dots -->
    <ellipse cx="-12" cy="-8" rx="12" ry="16" fill="white" stroke="white" stroke-width="2"/>
    <!-- Paddle dots pattern -->
    <circle cx="-12" cy="-14" r="1.2" fill="#0F766E"/>
    <circle cx="-12" cy="-8" r="1.2" fill="#0F766E"/>
    <circle cx="-12" cy="-2" r="1.2" fill="#0F766E"/>
    <circle cx="-18" cy="-11" r="1.2" fill="#0F766E"/>
    <circle cx="-18" cy="-5" r="1.2" fill="#0F766E"/>
    <circle cx="-6" cy="-11" r="1.2" fill="#0F766E"/>
    <circle cx="-6" cy="-5" r="1.2" fill="#0F766E"/>
    <!-- Paddle handle -->
    <rect x="-14" y="8" width="4" height="16" rx="2" fill="white"/>
    <rect x="-15" y="22" width="6" height="4" rx="1.5" fill="white"/>
  </g>
  
  <!-- Right Paddle -->
  <g transform="translate(60, 60) rotate(25)">
    <!-- Paddle face with dots -->
    <ellipse cx="12" cy="-8" rx="12" ry="16" fill="white" stroke="white" stroke-width="2"/>
    <!-- Paddle dots pattern -->
    <circle cx="12" cy="-14" r="1.2" fill="#0F766E"/>
    <circle cx="12" cy="-8" r="1.2" fill="#0F766E"/>
    <circle cx="12" cy="-2" r="1.2" fill="#0F766E"/>
    <circle cx="6" cy="-11" r="1.2" fill="#0F766E"/>
    <circle cx="6" cy="-5" r="1.2" fill="#0F766E"/>
    <circle cx="18" cy="-11" r="1.2" fill="#0F766E"/>
    <circle cx="18" cy="-5" r="1.2" fill="#0F766E"/>
    <!-- Paddle handle -->
    <rect x="10" y="8" width="4" height="16" rx="2" fill="white"/>
    <rect x="9" y="22" width="6" height="4" rx="1.5" fill="white"/>
  </g>
  
  <!-- Pickleball above paddles -->
  <circle cx="60" cy="35" r="6" fill="white" stroke="white" stroke-width="1.5"/>
  <!-- Ball holes -->
  <circle cx="57" cy="33" r="1.2" fill="#0F766E"/>
  <circle cx="60" cy="33" r="1.2" fill="#0F766E"/>
  <circle cx="63" cy="33" r="1.2" fill="#0F766E"/>
  <circle cx="57" cy="37" r="1.2" fill="#0F766E"/>
  <circle cx="60" cy="37" r="1.2" fill="#0F766E"/>
  <circle cx="63" cy="37" r="1.2" fill="#0F766E"/>
</svg>