<?xml version="1.0" encoding="UTF-8"?>
<svg id="Layer_2" data-name="Layer 2" xmlns="http://www.w3.org/2000/svg" viewBox="0 0 1104.78 409.97">
  <defs>
    <style>
      .cls-1 {
        fill: #fff;
      }
    </style>
  </defs>
  <g id="Layer_1-2" data-name="Layer 1">
    <g>
      <g>
        <path class="cls-1" d="m73.91,0h159.73l38.25,150.6h3.65L302.09,0h136.91l-56.33,319.45h-159.73l-38.25-150.6h-3.65l-26.56,150.6H17.58L73.91,0Z"/>
        <path class="cls-1" d="m457.25,0h181.63c41.07,0,73.63,2.13,97.68,6.39,24.04,4.27,43.09,15.74,57.13,34.46,14.04,18.71,17.55,48,10.52,87.85-6.97,39.55-20.6,68.53-40.89,86.94-20.29,18.41-43.19,29.66-68.7,33.77-25.52,4.11-59.12,6.16-100.8,6.16h-44.72l-11.27,63.89h-136.91L457.25,0Zm152.66,164.29c19.77,0,33.64-2.28,41.59-6.85,7.95-4.56,13-12.93,15.15-25.1,2.14-12.17.04-20.54-6.3-25.1-6.35-4.56-19.41-6.84-39.18-6.84h-44.72l-11.27,63.89h44.72Z"/>
        <path class="cls-1" d="m1104.78,209.93l-19.31,109.53h-301.2L840.59,0h136.91l-37.02,209.93h164.29Z"/>
      </g>
      <g>
        <g>
          <path class="cls-1" d="m832.95,409.97c-2.43,0-4.49-.62-6.18-1.85-1.68-1.23-2.28-3.22-1.8-5.96.42-2.4,1.49-4.29,3.19-5.66s3.79-2.05,6.25-2.05h10.18l.69-3.92c.26-1.46-.06-2.65-.94-3.58-.89-.93-2.39-1.39-4.52-1.39s-3.82.33-5.06,1c-1.24.67-2.33,2.02-3.27,4.06l-3.69-1.09c.93-2.49,2.4-4.43,4.42-5.8,2.02-1.37,4.75-2.05,8.19-2.05,3.13,0,5.63.68,7.49,2.04,1.86,1.36,2.54,3.45,2.04,6.29l-2.16,12.25c-.29,1.65-.01,2.67.83,3.09.84.41,2.2.46,4.08.16l-.73,4.15c-1.93.27-3.68.14-5.25-.39-1.56-.53-2.22-1.97-1.95-4.31h-.91c-1.1,1.43-2.65,2.62-4.62,3.58-1.98.96-4.06,1.44-6.25,1.44Zm1.28-3.88c1.67,0,3.27-.28,4.8-.85,1.53-.57,2.92-1.55,4.17-2.96l.78-4.41h-9.58c-1.31,0-2.41.3-3.31.9-.9.6-1.48,1.64-1.74,3.14-.23,1.32.04,2.34.8,3.08.77.73,2.13,1.1,4.07,1.1Z"/>
          <path class="cls-1" d="m868.96,409.97c-2.68,0-4.67-.85-5.98-2.56-1.31-1.7-1.72-3.97-1.22-6.8l3.26-18.48h4.56l-3.1,17.57c-.34,1.95-.15,3.42.59,4.43.74,1,1.99,1.51,3.75,1.51,1.4,0,2.86-.4,4.39-1.21,1.53-.8,3.11-2,4.76-3.58l3.3-18.71h4.56l-4.83,27.38h-4.56l.8-4.56h-1.37c-.94,1.52-2.21,2.74-3.82,3.65-1.61.91-3.31,1.37-5.1,1.37Z"/>
          <path class="cls-1" d="m903.82,409.97c-2.31,0-4.49-.34-6.53-1.03-2.04-.68-3.85-1.74-5.42-3.17l2.69-3.6c1.28,1.22,2.78,2.14,4.51,2.76,1.73.62,3.55.94,5.47.94,1.58,0,3.14-.24,4.67-.73,1.53-.48,2.43-1.51,2.71-3.08.23-1.3-.2-2.22-1.29-2.77-1.09-.54-3.18-1.01-6.28-1.41-3.28-.4-5.67-1.18-7.18-2.36-1.51-1.17-2.04-3.03-1.6-5.56.48-2.75,1.88-4.81,4.2-6.2s4.84-2.08,7.58-2.08c2.16,0,4.17.36,6.04,1.09,1.86.73,3.53,1.77,5,3.1l-2.69,3.61c-1.2-1.12-2.56-2.02-4.09-2.69-1.52-.67-3.19-1-4.98-1-1.46,0-2.84.27-4.14.82-1.3.55-2.08,1.55-2.33,3.01-.22,1.25.18,2.15,1.19,2.71,1.01.56,3.06,1.04,6.16,1.44,3.4.39,5.85,1.24,7.36,2.53,1.5,1.29,2.05,3.1,1.65,5.41-.5,2.86-2.03,4.95-4.57,6.27-2.55,1.32-5.25,1.99-8.11,1.99Z"/>
          <path class="cls-1" d="m937.64,409.93c-3.01,0-5.14-.79-6.38-2.37-1.24-1.58-1.59-3.92-1.04-7.03l2.52-14.28h-5.48l.72-4.11h5.48l1.61-9.13h4.56l-1.61,9.13h10.04l-.72,4.11h-10.04l-2.53,14.36c-.32,1.8-.11,3.12.63,3.96.73.84,1.82,1.26,3.25,1.26.67,0,1.43-.08,2.28-.23.85-.15,1.73-.38,2.63-.68l.21,3.98c-1.1.36-2.16.62-3.17.79-1.02.17-2,.25-2.94.25Z"/>
          <path class="cls-1" d="m951.45,409.52l4.83-27.38h4.56l-.8,4.56h1.37c.97-1.73,2.2-3,3.68-3.81,1.48-.81,3.01-1.21,4.59-1.21,2.01,0,3.52.68,4.52,2.03s1.3,3.26.86,5.73l-.72,4.11h-4.34l.61-3.47c.21-1.22.04-2.2-.53-2.94-.57-.75-1.42-1.12-2.54-1.12-1.25,0-2.64.46-4.17,1.39-1.53.93-2.89,2.06-4.07,3.4l-3.3,18.71h-4.56Z"/>
          <path class="cls-1" d="m988.1,409.97c-2.43,0-4.49-.62-6.18-1.85-1.68-1.23-2.28-3.22-1.8-5.96.42-2.4,1.49-4.29,3.19-5.66s3.79-2.05,6.25-2.05h10.18l.69-3.92c.26-1.46-.06-2.65-.94-3.58-.88-.93-2.39-1.39-4.52-1.39s-3.82.33-5.06,1c-1.24.67-2.33,2.02-3.27,4.06l-3.69-1.09c.93-2.49,2.4-4.43,4.42-5.8,2.02-1.37,4.75-2.05,8.19-2.05,3.13,0,5.63.68,7.49,2.04,1.86,1.36,2.54,3.45,2.04,6.29l-2.16,12.25c-.29,1.65-.01,2.67.83,3.09.84.41,2.2.46,4.08.16l-.73,4.15c-1.94.27-3.68.14-5.25-.39-1.56-.53-2.22-1.97-1.95-4.31h-.91c-1.11,1.43-2.65,2.62-4.62,3.58-1.98.96-4.06,1.44-6.25,1.44Zm1.28-3.88c1.67,0,3.27-.28,4.8-.85,1.53-.57,2.92-1.55,4.17-2.96l.78-4.41h-9.58c-1.31,0-2.41.3-3.31.9-.9.6-1.48,1.64-1.74,3.14-.23,1.32.04,2.34.8,3.08.77.73,2.12,1.1,4.07,1.1Z"/>
          <path class="cls-1" d="m1025.15,409.74c-3.07,0-5.3-1.03-6.69-3.1-1.39-2.07-1.83-4.52-1.33-7.35l4.63-26.28h4.56l-4.64,26.33c-.28,1.61-.09,3.04.59,4.29.68,1.25,1.93,1.87,3.75,1.87.46,0,1-.07,1.64-.23.64-.15,1.2-.33,1.69-.55l.21,3.97c-.63.3-1.33.55-2.1.75-.76.2-1.54.3-2.33.3Z"/>
          <path class="cls-1" d="m1040.43,409.52l4.83-27.38h4.56l-4.83,27.38h-4.56Zm7.99-32.4c-1.16,0-2.06-.18-2.71-.55-.65-.36-.89-1.05-.71-2.05l.06-.32c.18-1.03.67-1.74,1.45-2.12.78-.38,1.75-.57,2.91-.57s2.06.19,2.71.57c.65.38.88,1.09.7,2.12l-.06.32c-.18,1-.66,1.69-1.46,2.05-.79.37-1.76.55-2.88.55Z"/>
          <path class="cls-1" d="m1067.96,409.97c-2.43,0-4.49-.62-6.18-1.85-1.68-1.23-2.28-3.22-1.8-5.96.42-2.4,1.49-4.29,3.19-5.66s3.79-2.05,6.25-2.05h10.18l.69-3.92c.26-1.46-.06-2.65-.94-3.58-.88-.93-2.39-1.39-4.52-1.39s-3.82.33-5.06,1c-1.24.67-2.33,2.02-3.27,4.06l-3.69-1.09c.93-2.49,2.4-4.43,4.42-5.8,2.02-1.37,4.75-2.05,8.19-2.05,3.13,0,5.63.68,7.49,2.04,1.86,1.36,2.54,3.45,2.04,6.29l-2.16,12.25c-.29,1.65-.01,2.67.83,3.09.84.41,2.2.46,4.08.16l-.73,4.15c-1.94.27-3.68.14-5.25-.39-1.56-.53-2.22-1.97-1.95-4.31h-.91c-1.11,1.43-2.65,2.62-4.62,3.58-1.98.96-4.06,1.44-6.25,1.44Zm1.28-3.88c1.67,0,3.27-.28,4.8-.85,1.53-.57,2.92-1.55,4.17-2.96l.78-4.41h-9.58c-1.31,0-2.41.3-3.31.9-.9.6-1.48,1.64-1.74,3.14-.23,1.32.04,2.34.8,3.08.77.73,2.12,1.1,4.07,1.1Z"/>
        </g>
        <polygon class="cls-1" points="789.34 409.97 784.27 409.97 789.17 382.16 794.24 382.16 789.34 409.97"/>
      </g>
      <g>
        <path class="cls-1" d="m4.86,382h13.79l3.3,13h.32l2.29-13h11.82l-4.86,27.58h-13.79l-3.3-13h-.32l-2.29,13H0l4.86-27.58Z"/>
        <path class="cls-1" d="m45.44,382h17.73l4.2,27.58h-13l-.25-3.94h-7.96l-1.64,3.94h-13l13.92-27.58Zm8.19,16.54l-.56-8.67h-.31l-3.62,8.67h4.49Z"/>
        <path class="cls-1" d="m68.48,382h31.51l-1.67,9.45h-9.85l-3.2,18.12h-11.82l3.2-18.12h-9.85l1.67-9.45Z"/>
        <path class="cls-1" d="m112.8,382l-4.86,27.58h-11.82l4.86-27.58h11.82Z"/>
        <path class="cls-1" d="m117.73,385.05c3.27-2.3,7.95-3.45,14.04-3.45s10.37,1.15,12.83,3.45c2.46,2.3,3.26,5.88,2.4,10.73-.86,4.86-2.92,8.44-6.19,10.74-3.27,2.3-7.95,3.45-14.04,3.45s-10.37-1.15-12.82-3.45c-2.46-2.3-3.26-5.88-2.4-10.74.86-4.86,2.92-8.44,6.19-10.73Zm6.33,14.91c.8.89,2.21,1.34,4.23,1.34s3.59-.45,4.71-1.34c1.12-.89,1.84-2.29,2.17-4.18.33-1.89.1-3.28-.7-4.18-.8-.89-2.21-1.34-4.24-1.34s-3.59.45-4.71,1.34c-1.12.89-1.84,2.29-2.17,4.18s-.1,3.28.7,4.18Z"/>
        <path class="cls-1" d="m150.61,382h13.79l3.3,13h.32l2.29-13h11.82l-4.86,27.58h-13.79l-3.3-13h-.32l-2.29,13h-11.82l4.86-27.58Z"/>
        <path class="cls-1" d="m191.19,382h17.73l4.2,27.58h-13l-.25-3.94h-7.96l-1.64,3.94h-13l13.92-27.58Zm8.19,16.54l-.56-8.67h-.31l-3.62,8.67h4.49Z"/>
        <path class="cls-1" d="m240.78,400.12l-1.67,9.45h-26l4.86-27.58h11.82l-3.19,18.12h14.18Z"/>
        <path class="cls-1" d="m258.94,382h15.68c3.55,0,6.36.18,8.43.55,2.08.37,3.72,1.36,4.93,2.97,1.21,1.62,1.51,4.14.91,7.58-.6,3.41-1.78,5.92-3.53,7.5-1.75,1.59-3.73,2.56-5.93,2.92-2.2.35-5.1.53-8.7.53h-3.86l-.97,5.51h-11.82l4.86-27.58Zm13.18,14.18c1.71,0,2.9-.2,3.59-.59.69-.39,1.12-1.12,1.31-2.17.18-1.05,0-1.77-.54-2.17-.55-.39-1.67-.59-3.38-.59h-3.86l-.97,5.52h3.86Z"/>
        <path class="cls-1" d="m303.85,382l-4.86,27.58h-11.82l4.86-27.58h11.82Z"/>
        <path class="cls-1" d="m308.67,385.01c3.18-2.27,7.77-3.41,13.76-3.41,5.65,0,9.68.98,12.11,2.94,2.43,1.96,3.34,4.94,2.73,8.96l-11.56.79c0-1.37-.37-2.38-1.12-3.03-.75-.66-1.94-.99-3.57-.99-1.94,0-3.45.45-4.51,1.34-1.06.89-1.76,2.29-2.09,4.18s-.13,3.28.62,4.18c.75.89,2.09,1.34,4.04,1.34,1.76,0,3.16-.32,4.21-.96,1.04-.64,1.81-1.66,2.29-3.05l11.28.79c-.81,4.02-2.81,7.01-5.99,8.96-3.18,1.96-7.62,2.93-13.32,2.93-6.04,0-10.26-1.14-12.65-3.41-2.4-2.27-3.16-5.86-2.3-10.77.87-4.91,2.89-8.5,6.08-10.77Z"/>
        <path class="cls-1" d="m340.88,382h11.82l-1.79,10.12h.32l8.56-10.12h13l-12.67,13.79,8.99,13.79h-14.18l-4.88-10.75h-.32l-1.9,10.75h-11.82l4.86-27.58Z"/>
        <path class="cls-1" d="m396.77,400.12l-1.67,9.45h-26l4.86-27.58h11.82l-3.2,18.12h14.18Z"/>
        <path class="cls-1" d="m425.39,400.91l-1.53,8.67h-27.57l4.86-27.58h27.18l-1.53,8.67h-15.36l-.35,1.97h13.79l-1.11,6.3h-13.79l-.35,1.97h15.76Z"/>
        <path class="cls-1" d="m429.9,382h16.47c3.31,0,5.87.12,7.69.37,1.82.25,3.25.92,4.29,2.01,1.04,1.09,1.35,2.82.94,5.18-.32,1.81-1.06,3.18-2.22,4.12-1.16.93-2.62,1.58-4.36,1.95l-.06.32c1.9.26,3.33.86,4.29,1.79.96.93,1.28,2.37.93,4.31-.42,2.36-1.35,4.08-2.8,5.16-1.45,1.08-3.16,1.74-5.12,1.99-1.96.25-4.65.38-8.06.38h-16.86l4.86-27.58Zm13.39,19.7c1.1,0,1.87-.11,2.3-.33.43-.22.7-.64.81-1.24.11-.6-.02-1.02-.37-1.24-.36-.22-1.08-.33-2.19-.33h-5.04l-.56,3.15h5.04Zm1.13-8.67c.95,0,1.61-.11,1.99-.33.38-.22.62-.64.73-1.24.11-.6,0-1.02-.29-1.24-.3-.22-.92-.33-1.87-.33h-4.65l-.56,3.15h4.65Z"/>
        <path class="cls-1" d="m468.11,382h17.73l4.2,27.58h-13l-.25-3.94h-7.96l-1.64,3.94h-13l13.92-27.58Zm8.19,16.54l-.56-8.67h-.31l-3.62,8.67h4.49Z"/>
        <path class="cls-1" d="m517.7,400.12l-1.67,9.45h-26l4.86-27.58h11.82l-3.2,18.12h14.18Z"/>
        <path class="cls-1" d="m544.88,400.12l-1.67,9.45h-26l4.86-27.58h11.82l-3.19,18.12h14.18Z"/>
        <path class="cls-1" d="m585.85,400.12l-1.67,9.45h-26l4.86-27.58h11.82l-3.19,18.12h14.18Z"/>
        <path class="cls-1" d="m612.89,400.91l-1.53,8.67h-27.57l4.86-27.58h27.18l-1.53,8.67h-15.36l-.35,1.97h13.79l-1.11,6.3h-13.79l-.35,1.97h15.76Z"/>
        <path class="cls-1" d="m624.89,382h17.73l4.2,27.58h-13l-.25-3.94h-7.96l-1.64,3.94h-13l13.92-27.58Zm8.19,16.54l-.56-8.67h-.31l-3.62,8.67h4.49Z"/>
        <path class="cls-1" d="m652.9,385.03c3.15-2.29,7.63-3.43,13.46-3.43,5.04,0,8.73.82,11.07,2.46,2.33,1.64,3.43,4.13,3.29,7.47l-9.01,1.97-.05.32h9.45l-.83,4.73c-.31,1.76-.89,3.43-1.73,5.02-.85,1.59-2.59,3.05-5.25,4.39-2.65,1.34-6.46,2.01-11.42,2.01-6.01,0-10.23-1.15-12.65-3.45-2.42-2.3-3.2-5.89-2.34-10.77.86-4.86,2.86-8.43,6.01-10.71Zm6.63,14.87c.87.93,2.44,1.4,4.7,1.4,2.44,0,3.91-.53,4.42-1.58h-5.4l1.04-5.91h4.53c-.07-1.23-.45-2.13-1.14-2.7-.69-.56-1.72-.85-3.08-.85-1.68,0-3,.42-3.95,1.26-.95.84-1.58,2.15-1.9,3.94-.36,2.02-.1,3.5.77,4.43Z"/>
        <path class="cls-1" d="m684.37,382h11.82l-2.57,14.58c-.24,1.37-.1,2.36.42,2.99.52.63,1.46.95,2.83.95s2.42-.31,3.16-.95c.74-.63,1.23-1.63,1.47-2.99l2.57-14.58h11.82l-2.57,14.58c-.81,4.6-2.68,7.98-5.61,10.14-2.93,2.17-7.1,3.25-12.51,3.25s-9.2-1.08-11.36-3.25c-2.17-2.17-2.84-5.55-2.03-10.14l2.57-14.58Z"/>
        <path class="cls-1" d="m741.7,400.91l-1.53,8.67h-27.57l4.86-27.58h27.18l-1.53,8.67h-15.36l-.35,1.97h13.79l-1.11,6.3h-13.79l-.35,1.97h15.76Z"/>
      </g>
    </g>
  </g>
</svg>